<svg width="47" height="54" viewBox="0 0 47 54" fill="none" xmlns="http://www.w3.org/2000/svg">
<path id="Vector" d="M16.665 38.5938L23.4919 45.3238L30.3187 38.5938L23.4919 31.8639L16.665 38.5938ZM23.4919 5.93247V5.94259C21.5379 5.94259 19.584 6.67799 18.0954 8.14543L18.0886 8.13868C16.6034 9.60611 15.8574 11.5357 15.8574 13.4653C15.8574 15.3983 16.6 17.3245 18.0817 18.7852H18.092L23.4919 24.105L28.8883 18.7852H28.8986C30.3906 17.3144 31.1366 15.3881 31.1366 13.4653H31.1263C31.1263 11.5391 30.3803 9.61286 28.8918 8.14543C27.3929 6.67125 25.439 5.93247 23.4919 5.93247ZM34.254 42.4732L25.4595 51.1429L23.4919 53.0826L21.5242 51.1429L12.7298 42.4732L3.93527 51.1429L0 47.2635L19.56 27.9844L14.1636 22.6646L14.1704 22.6578C11.5868 20.1143 10.2967 16.7847 10.2967 13.4653C10.2967 10.1425 11.5868 6.8163 14.1636 4.27613V4.26938C16.7403 1.7292 20.1178 0.457428 23.4919 0.457428V0.467548C26.8728 0.467548 30.2537 1.73595 32.8236 4.26938C35.4004 6.80956 36.687 10.1391 36.687 13.4687H36.6768C36.6768 16.7948 35.3901 20.121 32.8168 22.6612L32.8236 22.668L27.4272 27.9844L46.9838 47.2635L43.0485 51.1429L34.254 42.4732Z" fill="white"/>
</svg>
