<svg width="234" height="46" viewBox="0 0 234 46" fill="none" xmlns="http://www.w3.org/2000/svg">
<g id="Logo">
<g id="Travellian">
<path d="M60.5641 12.1021V38.9631H55.5044V12.1021H47.2344V7.80263H68.7916V12.1021H60.5641Z" fill="white"/>
<path d="M73.3199 21.9994C73.816 20.6656 74.4679 19.6794 75.2758 19.0408C76.0978 18.4023 77.1112 18.083 78.3159 18.083C78.9679 18.083 79.6057 18.1611 80.2293 18.3172C80.8671 18.4733 81.4907 18.7003 82.1001 18.9983L80.4419 22.9146C80.045 22.6308 79.6128 22.4251 79.145 22.2974C78.6915 22.1555 78.1813 22.0845 77.6144 22.0845C76.0837 22.0845 74.9853 22.7018 74.3191 23.9363C73.653 25.1566 73.3199 27.2141 73.3199 30.1088V38.9631H68.7066V18.7429H73.3199V21.9994Z" fill="white"/>
<path d="M103.7 38.9631H99.0866V36.3451C98.2645 37.5087 97.3008 38.3743 96.1953 38.9418C95.1039 39.5094 93.8496 39.7932 92.4323 39.7932C89.5835 39.7932 87.3371 38.8212 85.693 36.8772C84.0631 34.9191 83.2481 32.2443 83.2481 28.853C83.2481 25.6319 84.0844 23.0352 85.7568 21.0629C87.4292 19.0763 89.6119 18.083 92.3047 18.083C93.9488 18.083 95.352 18.4307 96.5141 19.126C97.6905 19.8071 98.548 20.7933 99.0866 22.0845V18.7854H103.7V38.9631ZM99.2141 28.8104C99.2141 26.7245 98.7251 25.0998 97.7472 23.9363C96.7834 22.7727 95.4299 22.191 93.6866 22.191C91.9433 22.191 90.5685 22.794 89.5623 24.0001C88.5701 25.1921 88.0741 26.8523 88.0741 28.9807C88.0741 31.1233 88.556 32.7764 89.5197 33.94C90.4835 35.1035 91.8441 35.6853 93.6016 35.6853C95.2598 35.6853 96.6063 35.0539 97.6409 33.791C98.6897 32.5281 99.2141 30.8679 99.2141 28.8104Z" fill="white"/>
<path d="M117.157 40.1763L106.591 18.7854H111.63L116.03 28.9381C116.172 29.2503 116.342 29.7186 116.541 30.3429C116.739 30.9673 116.945 31.7122 117.157 32.5778C117.299 31.9676 117.462 31.3646 117.646 30.7686C117.845 30.1584 118.078 29.5483 118.348 28.9381L122.727 18.7854H127.745L117.157 40.1763Z" fill="white"/>
<path d="M150.067 29.5554H133.952C134.066 31.4426 134.626 32.9183 135.632 33.9826C136.638 35.0326 137.977 35.5576 139.65 35.5576C141.138 35.5576 142.378 35.2454 143.37 34.6211C144.362 33.9967 145.227 32.9893 145.964 31.5987L149.854 33.7697C148.721 35.7988 147.318 37.31 145.645 38.3033C143.973 39.2966 142.01 39.7932 139.756 39.7932C136.525 39.7932 133.952 38.807 132.039 36.8347C130.126 34.8623 129.169 32.2301 129.169 28.9381C129.169 25.7738 130.154 23.1771 132.124 21.148C134.108 19.1047 136.652 18.083 139.756 18.083C143.002 18.083 145.532 19.0125 147.346 20.8713C149.16 22.7302 150.067 25.334 150.067 28.6827V29.5554ZM145.284 26.4478C145.099 25.0005 144.547 23.9008 143.625 23.1488C142.704 22.3825 141.443 21.9994 139.841 21.9994C138.325 21.9994 137.106 22.3683 136.185 23.1062C135.263 23.844 134.618 24.9579 134.25 26.4478H145.284Z" fill="white"/>
<path d="M155.106 38.9631V5.97217H159.719V38.9631H155.106Z" fill="white"/>
<path d="M166.543 38.9631V5.97217H171.157V38.9631H166.543Z" fill="white"/>
<path d="M177.364 10.0588C177.364 9.27836 177.648 8.60435 178.215 8.03676C178.796 7.46918 179.483 7.18538 180.277 7.18538C181.099 7.18538 181.779 7.46208 182.318 8.01548C182.871 8.55469 183.147 9.23579 183.147 10.0588C183.147 10.8818 182.871 11.5771 182.318 12.1447C181.765 12.6981 181.085 12.9748 180.277 12.9748C179.483 12.9748 178.796 12.691 178.215 12.1234C177.648 11.5416 177.364 10.8534 177.364 10.0588ZM177.981 38.9631V18.7854H182.594V38.9631H177.981Z" fill="white"/>
<path d="M208.17 38.9631H203.556V36.3451C202.734 37.5087 201.77 38.3743 200.665 38.9418C199.574 39.5094 198.319 39.7932 196.902 39.7932C194.053 39.7932 191.807 38.8212 190.163 36.8772C188.533 34.9191 187.718 32.2443 187.718 28.853C187.718 25.6319 188.554 23.0352 190.227 21.0629C191.899 19.0763 194.082 18.083 196.774 18.083C198.419 18.083 199.822 18.4307 200.984 19.126C202.16 19.8071 203.018 20.7933 203.556 22.0845V18.7854H208.17V38.9631ZM203.684 28.8104C203.684 26.7245 203.195 25.0998 202.217 23.9363C201.253 22.7727 199.9 22.191 198.156 22.191C196.413 22.191 195.038 22.794 194.032 24.0001C193.04 25.1921 192.544 26.8523 192.544 28.9807C192.544 31.1233 193.026 32.7764 193.989 33.94C194.953 35.1035 196.314 35.6853 198.071 35.6853C199.73 35.6853 201.076 35.0539 202.111 33.791C203.159 32.5281 203.684 30.8679 203.684 28.8104Z" fill="white"/>
<path d="M214.547 38.9631V18.7854H218.884V22.0845C219.806 20.6939 220.89 19.6794 222.137 19.0408C223.384 18.4023 224.901 18.083 226.687 18.083C228.189 18.083 229.465 18.3243 230.513 18.8067C231.576 19.275 232.406 19.9774 233.001 20.9139C233.355 21.4673 233.61 22.1129 233.766 22.8508C233.922 23.5886 234 24.8799 234 26.7245V38.9631H229.344V28.5976C229.344 25.9441 229.018 24.1846 228.366 23.319C227.728 22.4393 226.588 21.9994 224.943 21.9994C223.866 21.9994 222.903 22.198 222.052 22.5954C221.216 22.9927 220.557 23.5532 220.075 24.2768C219.735 24.7593 219.494 25.3836 219.352 26.1499C219.225 26.9019 219.161 28.108 219.161 29.7682V38.9631H214.547Z" fill="white"/>
</g>
<path id="Vector" d="M14.443 33.0515L20.3596 38.8842L26.2762 33.0515L20.3596 27.2189L14.443 33.0515ZM20.3596 4.74504V4.75381C18.6662 4.75381 16.9728 5.39116 15.6827 6.66293L15.6768 6.65709C14.3896 7.92886 13.7431 9.60117 13.7431 11.2735C13.7431 12.9487 14.3867 14.6181 15.6708 15.884H15.6797L20.3596 20.4946L25.0366 15.884H25.0455C26.3385 14.6093 26.985 12.9399 26.985 11.2735H26.9761C26.9761 9.6041 26.3296 7.93471 25.0395 6.66293C23.7405 5.38531 22.0471 4.74504 20.3596 4.74504ZM29.6868 36.4137L22.0649 43.9274L20.3596 45.6085L18.6543 43.9274L11.0325 36.4137L3.41057 43.9274L0 40.5652L16.952 23.8568L12.2751 19.2462L12.281 19.2404C10.0419 17.0359 8.92383 14.1503 8.92383 11.2735C8.92383 8.39372 10.0419 5.51103 12.2751 3.30954V3.30369C14.5083 1.10221 17.4354 0 20.3596 0V0.00877086C23.2898 0.00877086 26.2199 1.10805 28.4471 3.30369C30.6803 5.50518 31.7954 8.39079 31.7954 11.2764H31.7865C31.7865 14.1591 30.6714 17.0418 28.4412 19.2433L28.4471 19.2491L23.7702 23.8568L40.7193 40.5652L37.3087 43.9274L29.6868 36.4137Z" fill="white"/>
</g>
</svg>
